<!-- javascript.svg -->
<svg width="48" height="48" viewBox="0 0 128 128" xmlns="http://www.w3.org/2000/svg">
  <path fill="#f7df1e" d="M0 0h128v128H0z"/>
  <path d="M89.3 106.4c1.8 2.9 4.2 5.1 8.5 5.1 3.6 0 5.9-1.8 5.9-4.3 0-3-2.4-4-6.4-5.7l-2.2-.9c-6.4-2.7-10.6-6.1-10.6-13.3 0-6.6 5-11.7 12.7-11.7 5.5 0 9.5 1.9 12.4 7l-6.8 4.4c-1.5-2.7-3.1-3.7-5.6-3.7-2.5 0-4.1 1.6-4.1 3.7 0 2.6 1.6 3.6 5.4 5.1l2.2.9c7.5 3.2 11.7 6.4 11.7 13.6 0 7.8-6.1 12.1-14.3 12.1-8 0-13.1-3.8-15.6-8.8zm-35.3.7c1.4 2.5 2.6 4.6 5.6 4.6 2.9 0 4.8-1.1 4.8-5.5V64h8.9v41.9c0 9.3-5.4 13.5-13.2 13.5-7.1 0-11.2-3.7-13.3-8.1z"/>
</svg>
